
<svg xmlns="http://www.w3.org/2000/svg">
  <symbol id="phone">
   <path d="m12.198 14.545-2.194-3.869a.219.219 0 0 1 .158-.338.218.218 0 0 1 .22.123l2.194 3.87-.378.214ZM7.168 5.455a.221.221 0 0 1-.189-.111L4.786 1.478l.378-.218 2.193 3.869a.215.215 0 0 1-.081.29.238.238 0 0 1-.108.036Z"/><path d="M10.054 15.197a3.83 3.83 0 0 1-.957-.105c-3.128-.864-7.235-8.11-6.371-11.235a5.236 5.236 0 0 1 2.14-2.676c.193-.113.388-.215.583-.308a.785.785 0 0 1 1.01.328l1.643 2.91a.783.783 0 0 1-.367 1.108c-.16.07-.317.142-.468.221-.66.332-1.039.631-1.126.893-.2.623.038 1.676.608 2.682.57 1.007 1.338 1.746 1.981 1.883.19.043.582 0 1.344-.504.146-.09.291-.189.434-.29a.785.785 0 0 1 1.137.252l1.647 2.91a.785.785 0 0 1-.236 1.038 8.05 8.05 0 0 1-.564.34 5.238 5.238 0 0 1-2.438.553ZM5.772 1.233a.35.35 0 0 0-.14.032c-.18.085-.364.184-.544.291a4.83 4.83 0 0 0-1.943 2.415c-.367 1.33.276 3.741 1.637 6.141 1.362 2.4 3.102 4.192 4.431 4.562 1.041.2 2.12.052 3.07-.42.185-.101.363-.209.529-.32a.35.35 0 0 0 .101-.46l-1.646-2.908a.352.352 0 0 0-.379-.171.36.36 0 0 0-.139.06c-.148.105-.29.207-.448.291-.739.477-1.271.655-1.676.564-.77-.174-1.617-.957-2.263-2.094-.503-.873-.934-2.141-.643-3.031.125-.387.553-.754 1.341-1.164.157-.081.323-.157.489-.23a.36.36 0 0 0 .212-.36.355.355 0 0 0-.046-.143l-1.647-2.91a.352.352 0 0 0-.296-.142v-.003Z"/>
  </symbol>

  <symbol id="heart">
  <path d="m225.8 468.2-2.5-2.3L48.1 303.2C17.4 274.7 0 234.7 0 192.8v-3.3c0-70.4 50-130.8 119.2-144 39.4-7.6 79.7 1.5 111.8 24.1 9 6.4 17.4 13.8 25 22.3 4.2-4.8 8.7-9.2 13.5-13.3 3.7-3.2 7.5-6.2 11.5-9 32.1-22.6 72.4-31.7 111.8-24.2C462 58.6 512 119.1 512 189.5v3.3c0 41.9-17.4 81.9-48.1 110.4L288.7 465.9l-2.5 2.3c-8.2 7.6-19 11.9-30.2 11.9s-22-4.2-30.2-11.9zM239.1 145c-.4-.3-.7-.7-1-1.1l-17.8-20-.1-.1c-23.1-25.9-58-37.7-92-31.2-46.6 8.9-80.2 49.5-80.2 96.9v3.3c0 28.5 11.9 55.8 32.8 75.2L256 430.7 431.2 268a102.7 102.7 0 0 0 32.8-75.2v-3.3c0-47.3-33.6-88-80.1-96.9-34-6.5-69 5.4-92 31.2l-.1.1-.1.1-17.8 20c-.3.4-.7.7-1 1.1-4.5 4.5-10.6 7-16.9 7s-12.4-2.5-16.9-7z"/>
  </symbol>


  <symbol id="arrow">
<path d="M6 9.42a.838.838 0 0 1-.594-.246l-5.16-5.16a.84.84 0 1 1 1.189-1.188L6 7.392l4.565-4.566a.84.84 0 0 1 1.189 1.189l-5.16 5.16A.838.838 0 0 1 6 9.42Z"/>
  </symbol>


  <symbol id="sol">
 <path d="M15.9331 9.76737L13.2374 5.27428L15.6566 4.60228C15.9061 4.533 16.0521 4.27462 15.9828 4.02518C15.9135 3.77575 15.6551 3.62968 15.4057 3.699L12.3985 4.53431C12.3983 4.53437 12.3981 4.53443 12.3978 4.5345L8.46877 5.62587V0.468903C8.46877 0.210028 8.25889 0.000152588 8.00002 0.000152588C7.74114 0.000152588 7.53127 0.210028 7.53127 0.468903V5.88628L3.36118 7.04459C3.36096 7.04465 3.36074 7.04472 3.36052 7.04475L0.343425 7.88281C0.0939564 7.95209 -0.0520436 8.21047 0.0172064 8.4599C0.0748627 8.66737 0.263269 8.80331 0.468581 8.80331C0.510113 8.80331 0.552363 8.79775 0.5943 8.78609L2.47511 8.26365L0.0669876 12.2777C0.0233001 12.3505 0.000175152 12.4339 0.000175152 12.5188C0.000175152 14.4383 1.56183 15.9999 3.48133 15.9999C5.40089 15.9999 6.96252 14.4383 6.96252 12.5188C6.96252 12.4339 6.93943 12.3505 6.89571 12.2777L4.20002 7.78456L11.5124 5.7534L9.1043 9.76737C9.06061 9.84022 9.03749 9.92359 9.03749 10.0085C9.03749 11.928 10.5991 13.4896 12.5186 13.4896C13.4485 13.4896 14.3227 13.1275 14.9802 12.47C15.6378 11.8125 15.9999 10.9383 15.9998 10.0085C15.9999 9.92356 15.9768 9.84019 15.9331 9.76737ZM3.48133 15.0624C2.23892 15.0624 1.20218 14.1669 0.981456 12.9876H5.98121C5.76052 14.1669 4.72377 15.0624 3.48133 15.0624ZM5.66596 12.0501H1.29677L3.48133 8.40881L5.66596 12.0501ZM12.5186 5.89853L14.7033 9.53975H10.3341L12.5186 5.89853ZM12.5187 12.5522C11.2763 12.5522 10.2395 11.6566 10.0188 10.4773H15.0186C14.7979 11.6566 13.7611 12.5522 12.5187 12.5522Z" />
  </symbol>

<symbol id="castle">
<path d="M15.9077 3.34286C15.8161 3.21159 15.6687 3.13046 15.5086 3.12362L5.58366 2.69581C5.29889 2.68335 5.06093 2.9032 5.04875 3.18664C5.03665 3.46997 5.25614 3.70937 5.53955 3.72154L14.7926 4.12042L12.9732 9.79688H4.87696L3.41425 1.83253C3.38209 1.65797 3.26225 1.51235 3.09697 1.44751L0.701302 0.506346C0.437269 0.402975 0.139327 0.532664 0.0356332 0.796375C-0.0678819 1.06023 0.0617715 1.35835 0.325661 1.46204L2.45579 2.29886L3.94432 10.403C3.98918 10.6466 4.20151 10.8236 4.44933 10.8236H4.69624L4.13241 12.3897C4.08522 12.5209 4.10466 12.6666 4.18497 12.7806C4.26518 12.8946 4.39562 12.9624 4.53487 12.9624H4.93034C4.68529 13.2351 4.53487 13.5942 4.53487 13.9891C4.53487 14.8384 5.22589 15.5292 6.07495 15.5292C6.92402 15.5292 7.61504 14.8384 7.61504 13.9891C7.61504 13.5943 7.46462 13.2351 7.2196 12.9624H10.5774C10.3322 13.2351 10.1818 13.5942 10.1818 13.9891C10.1818 14.8384 10.8727 15.5292 11.7219 15.5292C12.5712 15.5292 13.262 14.8384 13.262 13.9891C13.262 13.5943 13.1116 13.2351 12.8666 12.9624H13.3476C13.5839 12.9624 13.7754 12.7709 13.7754 12.5346C13.7754 12.2983 13.5839 12.1068 13.3476 12.1068H5.14357L5.60554 10.8234H13.3475C13.5708 10.8234 13.7683 10.6792 13.8363 10.4668L15.9753 3.79305C16.0245 3.64073 15.9993 3.47419 15.9077 3.34286ZM6.07499 14.6738C5.69749 14.6738 5.39049 14.3668 5.39049 13.9893C5.39049 13.6118 5.69749 13.3048 6.07499 13.3048C6.45249 13.3048 6.75945 13.6118 6.75945 13.9893C6.75945 14.3668 6.45249 14.6738 6.07499 14.6738ZM11.7219 14.6738C11.3444 14.6738 11.0374 14.3668 11.0374 13.9893C11.0374 13.6118 11.3444 13.3048 11.7219 13.3048C12.0994 13.3048 12.4064 13.6118 12.4064 13.9893C12.4064 14.3668 12.0994 14.6738 11.7219 14.6738Z" />
</symbol>

<symbol id="seed">
<g  clip-path="url(#a)"><path d="m3.368 19.13 2.257 1.129v2.522c0 .26.21.469.469.469h4.968c.26 0 .47-.21.47-.469v-6.12a2.775 2.775 0 0 0-2.503-2.77c-.006 0-1.983-.31-2.9-1.227l-1.053-1.052a1.862 1.862 0 0 0-1.326-.55v-3.75a1.877 1.877 0 0 0-1.875-1.875A1.877 1.877 0 0 0 0 7.313v6.368a6.09 6.09 0 0 0 3.368 5.45ZM.938 7.313a.939.939 0 0 1 1.875 0v4c-.572.331-.938.948-.938 1.624 0 .501.195.972.55 1.326l2.4 2.401a.469.469 0 0 0 .663-.663l-2.4-2.4a.939.939 0 0 1 .35-1.547.936.936 0 0 1 .975.22l1.053 1.053c1.086 1.087 3.461 1.496 3.466 1.497a1.84 1.84 0 0 1 1.662 1.838v5.65H6.563V19.97c0-.178-.1-.34-.26-.42l-2.515-1.257a5.128 5.128 0 0 1-2.85-4.612V7.313ZM11.531 11.531a.469.469 0 0 0 .938 0v-1.406h1.794a4.773 4.773 0 0 0 4.768-4.768V3.094a.469.469 0 0 0-.8-.332c-.516.516-1.202.8-1.932.8-1.567 0-2.96.761-3.83 1.933V1.219a.469.469 0 0 0-.938 0v2.4a4.764 4.764 0 0 0-3.83-1.931c-.73 0-1.416-.285-1.932-.8a.469.469 0 0 0-.8.33v2.264A4.773 4.773 0 0 0 9.737 8.25h1.794v3.281ZM16.3 4.5c.639 0 1.253-.162 1.795-.467v1.324a3.835 3.835 0 0 1-3.83 3.83h-.858l2.625-1.968a.469.469 0 0 0-.562-.75l-3 2.25V8.33a3.835 3.835 0 0 1 3.83-3.831ZM5.906 3.482V2.158a3.649 3.649 0 0 0 1.795.467 3.835 3.835 0 0 1 3.83 3.83v.389l-3-2.25a.469.469 0 0 0-.562.75l2.625 1.969h-.857a3.835 3.835 0 0 1-3.83-3.831ZM21.516 18.469a.469.469 0 1 0 0-.938.469.469 0 0 0 0 .938Z"/><path d="M22.125 5.438a1.877 1.877 0 0 0-1.875 1.875v3.75c-.5 0-.971.195-1.326.549l-1.052 1.052c-.898.897-2.892 1.226-2.897 1.227a2.775 2.775 0 0 0-2.506 2.77v6.12c0 .26.21.469.469.469h4.968c.26 0 .469-.21.469-.469V20.26l1.534-.768a.469.469 0 0 0-.419-.838l-1.793.896a.47.47 0 0 0-.26.42v2.343h-4.03v-5.65c0-.953.714-1.743 1.665-1.838.004-.002 2.317-.351 3.462-1.497l1.053-1.052a.937.937 0 0 1 .975-.222.94.94 0 0 1 .35 1.547l-2.4 2.401a.469.469 0 1 0 .663.663l2.4-2.4c.355-.355.55-.826.55-1.326 0-.677-.366-1.294-.938-1.624V7.312a.939.939 0 0 1 1.875 0v6.368a5.17 5.17 0 0 1-.625 2.462.469.469 0 1 0 .823.448 6.11 6.11 0 0 0 .74-2.91V7.313a1.877 1.877 0 0 0-1.875-1.875Z"/></g><defs><clipPath id="a"><path fill="#fff" d="M0 0h24v24H0z"/></clipPath></defs>
<symbol>
<symbol id="sack">
<g clip-path="url(#a)"><path stroke-width=".2" d="M18.645 21.118h-.1a.428.428 0 1 0 .856 0 1.535 1.535 0 0 0-1.533-1.533.428.428 0 1 0 0 .856v-.1m.777.777h-.1a.678.678 0 0 0-.677-.677v-.1m.777.777a.778.778 0 0 0-.777-.777m.777.777a.328.328 0 1 0 .656 0 1.434 1.434 0 0 0-1.433-1.433.328.328 0 1 0 0 .656M15.958 18.798v.1a.428.428 0 1 0 0-.857l-.792 1.549h.1a.692.692 0 0 1 .692-.692v-.1Zm0 0a.328.328 0 0 0 0-.656v.656ZM12.134 12.027a.428.428 0 0 0-.428-.429 2.689 2.689 0 0 0-1.838.729v-.308a2.689 2.689 0 0 0-.126-3.671.428.428 0 0 0-.605 0 2.695 2.695 0 0 0-.126 3.671v.308a2.687 2.687 0 0 0-1.838-.729.428.428 0 0 0-.428.428 2.697 2.697 0 0 0 2.266 2.658v.665a.428.428 0 0 0 .857 0v-.665a2.697 2.697 0 0 0 2.266-2.657ZM9.208 8.419a2.595 2.595 0 0 0-.097 3.562l.097-3.562Zm-.004 1.835c0-.317.082-.627.236-.901a1.841 1.841 0 0 1 0 1.802 1.843 1.843 0 0 1-.236-.901Zm1.202 2.74c.224-.224.5-.386.803-.471a1.843 1.843 0 0 1-1.273 1.274c.085-.303.247-.58.47-.803Zm-1.933 0c.223.224.385.5.47.803a1.843 1.843 0 0 1-1.273-1.274c.302.086.579.248.803.471Z"/><path stroke-width=".2" d="M4.292 12A5.148 5.148 0 1 0 9.44 6.853 5.153 5.153 0 0 0 4.291 12ZM9.44 7.709a4.291 4.291 0 1 1 0 8.582 4.291 4.291 0 0 1 0-8.582Z"/><mask id="b" width="24" height="24" x="-.146" y="-.146" maskUnits="userSpaceOnUse"><path  d="M-.146-.146h24v24h-24z"/><path d="M21.874 20.981a2.117 2.117 0 0 0-1.594-1.884v-.05a2.105 2.105 0 0 0-1.94-2.095 2.076 2.076 0 0 0-.062-.216c.205-1.545.314-3.1.327-4.659v-.154c0-3.942-.927-8.406-1.016-8.828V1.183a.328.328 0 0 0-.328-.329H2.199a.328.328 0 0 0-.328.329v1.912c-.09.423-1.017 4.886-1.017 8.828v.154c0 3.941.927 8.405 1.017 8.828v1.912a.328.328 0 0 0 .328.328h20.619a.33.33 0 0 0 .328-.328 1.948 1.948 0 0 0-1.272-1.836ZM2.527 1.511h14.405v1.291H2.527V1.511ZM1.511 11.923c0-3.503.747-7.437.956-8.465h14.526c.209 1.028.957 4.962.957 8.465v.154a35.186 35.186 0 0 1-.228 3.769 2.274 2.274 0 0 0-3.806 1.106 2.105 2.105 0 0 0-1.939 2.096v.05a2.12 2.12 0 0 0-1.51 1.443h-8c-.21-1.027-.957-4.961-.957-8.464v-.154Zm1.016 9.275h7.438a1.944 1.944 0 0 0-.826 1.291H2.527v-1.291Zm10.882 1.291a.886.886 0 0 1 .822-.558.328.328 0 0 0 0-.656 1.544 1.544 0 0 0-1.507 1.214H9.81a1.296 1.296 0 0 1 .973-.943.328.328 0 0 0 .256-.336l-.003-.036-.002-.036a1.452 1.452 0 0 1 1.329-1.44.329.329 0 0 0 .296-.387 1.428 1.428 0 0 1 .399-1.285 1.448 1.448 0 0 1 1.022-.424l.066.003.028.002a.328.328 0 0 0 .347-.296 1.615 1.615 0 0 1 3.214 0 .328.328 0 0 0 .348.296l.025-.001a1.441 1.441 0 0 1 1.492 1.706.327.327 0 0 0 .296.386 1.453 1.453 0 0 1 1.329 1.44c0 .012 0 .023-.002.035l-.003.038a.328.328 0 0 0 .255.336 1.297 1.297 0 0 1 .974.943H13.41Z"/></mask><path  d="M21.874 20.981a2.117 2.117 0 0 0-1.594-1.884v-.05a2.105 2.105 0 0 0-1.94-2.095 2.076 2.076 0 0 0-.062-.216c.205-1.545.314-3.1.327-4.659v-.154c0-3.942-.927-8.406-1.016-8.828V1.183a.328.328 0 0 0-.328-.329H2.199a.328.328 0 0 0-.328.329v1.912c-.09.423-1.017 4.886-1.017 8.828v.154c0 3.941.927 8.405 1.017 8.828v1.912a.328.328 0 0 0 .328.328h20.619a.33.33 0 0 0 .328-.328 1.948 1.948 0 0 0-1.272-1.836ZM2.527 1.511h14.405v1.291H2.527V1.511ZM1.511 11.923c0-3.503.747-7.437.956-8.465h14.526c.209 1.028.957 4.962.957 8.465v.154a35.186 35.186 0 0 1-.228 3.769 2.274 2.274 0 0 0-3.806 1.106 2.105 2.105 0 0 0-1.939 2.096v.05a2.12 2.12 0 0 0-1.51 1.443h-8c-.21-1.027-.957-4.961-.957-8.464v-.154Zm1.016 9.275h7.438a1.944 1.944 0 0 0-.826 1.291H2.527v-1.291Zm10.882 1.291a.886.886 0 0 1 .822-.558.328.328 0 0 0 0-.656 1.544 1.544 0 0 0-1.507 1.214H9.81a1.296 1.296 0 0 1 .973-.943.328.328 0 0 0 .256-.336l-.003-.036-.002-.036a1.452 1.452 0 0 1 1.329-1.44.329.329 0 0 0 .296-.387 1.428 1.428 0 0 1 .399-1.285 1.448 1.448 0 0 1 1.022-.424l.066.003.028.002a.328.328 0 0 0 .347-.296 1.615 1.615 0 0 1 3.214 0 .328.328 0 0 0 .348.296l.025-.001a1.441 1.441 0 0 1 1.492 1.706.327.327 0 0 0 .296.386 1.453 1.453 0 0 1 1.329 1.44c0 .012 0 .023-.002.035l-.003.038a.328.328 0 0 0 .255.336 1.297 1.297 0 0 1 .974.943H13.41Z"/><path  stroke-width=".4" d="M21.874 20.981a2.117 2.117 0 0 0-1.594-1.884v-.05a2.105 2.105 0 0 0-1.94-2.095 2.076 2.076 0 0 0-.062-.216c.205-1.545.314-3.1.327-4.659v-.154c0-3.942-.927-8.406-1.016-8.828V1.183a.328.328 0 0 0-.328-.329H2.199a.328.328 0 0 0-.328.329v1.912c-.09.423-1.017 4.886-1.017 8.828v.154c0 3.941.927 8.405 1.017 8.828v1.912a.328.328 0 0 0 .328.328h20.619a.33.33 0 0 0 .328-.328 1.948 1.948 0 0 0-1.272-1.836ZM2.527 1.511h14.405v1.291H2.527V1.511ZM1.511 11.923c0-3.503.747-7.437.956-8.465h14.526c.209 1.028.957 4.962.957 8.465v.154a35.186 35.186 0 0 1-.228 3.769 2.274 2.274 0 0 0-3.806 1.106 2.105 2.105 0 0 0-1.939 2.096v.05a2.12 2.12 0 0 0-1.51 1.443h-8c-.21-1.027-.957-4.961-.957-8.464v-.154Zm1.016 9.275h7.438a1.944 1.944 0 0 0-.826 1.291H2.527v-1.291Zm10.882 1.291a.886.886 0 0 1 .822-.558.328.328 0 0 0 0-.656 1.544 1.544 0 0 0-1.507 1.214H9.81a1.296 1.296 0 0 1 .973-.943.328.328 0 0 0 .256-.336l-.003-.036-.002-.036a1.452 1.452 0 0 1 1.329-1.44.329.329 0 0 0 .296-.387 1.428 1.428 0 0 1 .399-1.285 1.448 1.448 0 0 1 1.022-.424l.066.003.028.002a.328.328 0 0 0 .347-.296 1.615 1.615 0 0 1 3.214 0 .328.328 0 0 0 .348.296l.025-.001a1.441 1.441 0 0 1 1.492 1.706.327.327 0 0 0 .296.386 1.453 1.453 0 0 1 1.329 1.44c0 .012 0 .023-.002.035l-.003.038a.328.328 0 0 0 .255.336 1.297 1.297 0 0 1 .974.943H13.41Z" mask="url(#b)"/><path stroke-width=".2" d="M3.834 5.144h2.729a.428.428 0 1 0 0-.856H3.834a.428.428 0 0 0 0 .856ZM7.879 5.144h.746a.428.428 0 1 0 0-.856h-.746a.428.428 0 1 0 0 .856Z"/></g><defs><clipPath id="a"><path  d="M0 0h24v24H0z"/></clipPath></defs>
</symbol>


<symbol id="tree">
<g  clip-path="url(#a)"><path d="M19 20.35V17a5.5 5.5 0 0 0 3.035-9.69 4.5 4.5 0 1 0-7.07 0A5.5 5.5 0 0 0 18 17v3a19.09 19.09 0 0 0-12 0v-3a5.5 5.5 0 0 0 3.035-9.69A4.5 4.5 0 1 0 1 4.5a4.465 4.465 0 0 0 .965 2.785A5.5 5.5 0 0 0 5 17v3.35a19.307 19.307 0 0 0-4.81 2.755A.5.5 0 0 0 .5 24h23a.5.5 0 0 0 .31-.895A19.306 19.306 0 0 0 19 20.35Zm-5-8.85a4.5 4.5 0 0 1 2-3.73.5.5 0 0 0 .05-.77 3.5 3.5 0 1 1 4.9 0 .5.5 0 0 0 .05.77 4.499 4.499 0 1 1-7 3.73Zm-13 0a4.5 4.5 0 0 1 2-3.73.5.5 0 0 0 .05-.77 3.5 3.5 0 1 1 4.9 0 .5.5 0 0 0 .05.77 4.5 4.5 0 1 1-7 3.73ZM2.055 23a18.105 18.105 0 0 1 19.895 0H2.055Z"/><path d="M5.145 7.355a.5.5 0 0 0 .71 0l1.5-1.5a.502.502 0 1 0-.71-.71L5.5 6.295l-1.145-1.15a.502.502 0 1 0-.71.71l1.5 1.5ZM5.145 10.855a.501.501 0 0 0 .71 0l1.5-1.5a.502.502 0 1 0-.71-.71L5.5 9.795l-1.145-1.15a.502.502 0 1 0-.71.71l1.5 1.5ZM5.855 14.355l1.5-1.5a.502.502 0 0 0-.71-.71L5.5 13.295l-1.145-1.15a.504.504 0 0 0-.819.163.502.502 0 0 0 .11.547l1.5 1.5a.501.501 0 0 0 .71 0ZM18.145 7.355a.5.5 0 0 0 .71 0l1.5-1.5a.502.502 0 0 0-.71-.71L18.5 6.295l-1.145-1.15a.502.502 0 0 0-.71.71l1.5 1.5ZM18.145 10.855a.502.502 0 0 0 .71 0l1.5-1.5a.502.502 0 0 0-.71-.71L18.5 9.795l-1.145-1.15a.502.502 0 0 0-.71.71l1.5 1.5ZM18.855 14.355l1.5-1.5a.502.502 0 0 0-.71-.71l-1.145 1.15-1.145-1.15a.502.502 0 1 0-.71.71l1.5 1.5a.502.502 0 0 0 .71 0Z"/></g><defs><clipPath id="a"><path fill="#fff" d="M0 0h24v24H0z"/></clipPath></defs>
</symbol>


<symbol id="fermer">
<path  d="M1.6 18h-.4a.4.4 0 0 0-.4.4v4c0 .22.18.4.4.4h.4V24h.8v-1.2h.8V24H4v-.027a3.197 3.197 0 0 0 2-1.063V24h.8v-7.2h8.8V24h.8v-2.8h2V24h.8v-2.8h.4a.4.4 0 0 0 .4-.4v-1.6a.4.4 0 0 0-.4-.4h-.4v-3.6A3.204 3.204 0 0 0 16 12h-2v-.351A4.005 4.005 0 0 0 15.179 9.2h.021a1.597 1.597 0 0 0 1.527-1.149A2 2 0 0 0 15.6 4.4h-.4V2.592c0-1.08-.328-1.825-1.003-2.275A1.881 1.881 0 0 0 13.15 0h-.3c-.372 0-.736.11-1.046.317a1.085 1.085 0 0 1-1.207 0A1.881 1.881 0 0 0 9.55 0h-.3c-.372 0-.737.11-1.046.317C7.528.767 7.2 1.51 7.2 2.592V4.4h-.4a1.98 1.98 0 0 0-1.2.41V2.33A2.316 2.316 0 0 1 6.283.682L5.717.117A3.11 3.11 0 0 0 4.8 2.332V5.6A1.2 1.2 0 0 1 4 6.726V2.332a2.316 2.316 0 0 1 .683-1.65L4.117.118A3.11 3.11 0 0 0 3.2 2.332V6.8h-.8V2.332a2.316 2.316 0 0 1 .683-1.65L2.517.118A3.11 3.11 0 0 0 1.6 2.332v4.394A1.2 1.2 0 0 1 .8 5.6V2.332a2.316 2.316 0 0 1 .683-1.65L.917.118A3.11 3.11 0 0 0 0 2.332V5.6c.001.95.67 1.769 1.6 1.96V18Zm.8-8.8h.8V18h-.8V9.2Zm2.4 10.4H6v.8H4.8v-.8ZM6 16.4v2.4H4.726A1.199 1.199 0 0 0 4 18.074V15.2a2.403 2.403 0 0 1 2-2.364V16.4ZM2 22h-.4v-3.2h2c.22 0 .4.18.4.4v2.4a.4.4 0 0 1-.4.4H2Zm2 1.164v-.438a1.2 1.2 0 0 0 .8-1.126v-.4h1.167A2.404 2.404 0 0 1 4 23.164ZM6.8 16v-3.2h.8V16h-.8Zm1.72-3.2c.152.505.443.957.84 1.304L10.494 16H8.4v-3.2h.12ZM11.2 14a2.002 2.002 0 0 1-2-2v-1.6a2 2 0 0 1 4 0V12a2.002 2.002 0 0 1-2 2Zm.513.75-.513.869-.52-.87c.171.033.345.05.52.051.172 0 .344-.017.513-.05ZM19.2 20.4h-2.8v-.8h2.8v.8Zm-.8-5.2v3.6h-2v-5.964a2.403 2.403 0 0 1 2 2.364Zm-2.8-2.4V16h-.8v-3.2h.8Zm-1.6 0V16h-2.098l1.107-1.867c.414-.35.717-.813.873-1.333H14Zm-.003-2.452a2.798 2.798 0 0 0-5.594 0A3.201 3.201 0 0 1 8 8.8V5.2h6.4v3.6a3.201 3.201 0 0 1-.403 1.548ZM15.2 8.4V6.8a.8.8 0 0 1 0 1.6Zm.4-3.2a1.2 1.2 0 0 1 1.063 1.756A1.6 1.6 0 0 0 15.2 6v-.8h.4ZM8.647.983C8.826.863 9.036.8 9.25.8h.3c.214 0 .424.063.603.183.634.424 1.46.424 2.094 0 .179-.12.389-.183.603-.183h.3c.214 0 .424.063.603.183.277.185.647.553.647 1.609V2.8H8v-.208c0-1.056.37-1.424.647-1.61ZM8 3.6h6.4v.8H8v-.8ZM6.8 5.2h.4V6a1.6 1.6 0 0 0-1.46.95A1.19 1.19 0 0 1 6.8 5.2Zm-.4 2.4a.8.8 0 0 1 .8-.8v1.6a.8.8 0 0 1-.8-.8Zm-1.474-.514c.143.389.404.724.745.96.197.681.82 1.152 1.529 1.154h.021A4.004 4.004 0 0 0 8.4 11.649V12h-2c-.92 0-1.795.398-2.4 1.09V7.56c.345-.073.665-.237.926-.474ZM3.2 8.4h-.8v-.8h.8v.8Z"/>
</symbol>

<symbol id="green">
<g clip-path="url(#a)"><path d="M18.798 8.596a1.43 1.43 0 0 0-.248-.018H4.44l.308-.143c.301-.143.575-.336.809-.573l3.957-3.956A1.481 1.481 0 0 0 9.72 2.01a1.431 1.431 0 0 0-2.146-.187L.42 8.978a1.431 1.431 0 0 0 0 2.025l7.155 7.155a1.431 1.431 0 0 0 2.146-.143 1.481 1.481 0 0 0-.207-1.896l-3.95-3.964a2.864 2.864 0 0 0-.715-.522l-.43-.193h14.053a1.48 1.48 0 0 0 1.51-1.202 1.431 1.431 0 0 0-1.184-1.642Z"/></g><defs><clipPath id="a"><path fill="#fff" d="M0 0h20v20H0z"/></clipPath></defs>
</symbol>


</svg>

