<svg width="109" height="49" viewBox="0 0 109 49" fill="none" xmlns="http://www.w3.org/2000/svg">
<rect width="109" height="49" fill="#E5E5E5"/>
<g id="index" clip-path="url(#clip0_0_1)">
<rect width="1920" height="4889" transform="translate(-405 -4487)" fill="#F8F8F8"/>
<g id="Body">
<g id="el">
</g>
</g>
<g id="footer">
<rect id="Rectangle 22" x="-405" y="-120" width="1920" height="523" fill="white"/>
<g id="1-4">
<g id="0">
<g id="Logo" clip-path="url(#clip1_0_1)">
<g id="Group 135">
<path id="Vector" d="M3.22545e-05 31.1754V2.24847C-0.00705117 1.9515 0.0463026 1.6562 0.156868 1.38079C0.267433 1.10538 0.432847 0.855674 0.642893 0.647085C0.843257 0.438678 1.08383 0.273753 1.34983 0.162426C1.61584 0.0510982 1.90162 -0.00428733 2.18965 -0.000285945H15.086C21.763 -0.000285945 26.6192 1.34313 29.6548 4.02993C32.6903 6.71672 34.2097 10.9351 34.2129 16.6851C34.2129 22.4222 32.6936 26.6308 29.6548 29.3111C26.616 31.9914 21.7597 33.3316 15.086 33.3316H2.18965C1.90405 33.3366 1.62029 33.2846 1.35479 33.1785C1.08929 33.0724 0.847339 32.9143 0.642893 32.7134C0.432098 32.5188 0.26552 32.2806 0.154567 32.0151C0.043613 31.7497 -0.00907892 31.4632 3.22545e-05 31.1754ZM8.7007 26.7363H14.8346C18.9723 26.7363 21.7871 25.977 23.2791 24.4583C24.7711 22.9397 25.5171 20.3438 25.5171 16.6705C25.5171 12.9908 24.7711 10.3948 23.2791 8.8827C21.7871 7.37056 18.9723 6.60803 14.8346 6.59505H8.7007V26.7363Z" fill="#1F1B1C"/>
<path id="Vector_2" d="M46.6455 25.2715V25.2958H50.5608C50.9813 25.2958 51.3922 25.2958 51.7982 25.2715H46.6455Z" fill="#84C551"/>
<path id="Vector_3" d="M75.3381 4.39022V2.20477C75.3287 1.91266 75.3789 1.62169 75.4856 1.34989C75.5923 1.07809 75.7532 0.831229 75.9585 0.624563C76.1637 0.417898 76.4089 0.255826 76.6788 0.148371C76.9487 0.0409162 77.2377 -0.00964408 77.5278 -0.000169813H106.805C107.096 -0.0103639 107.385 0.039715 107.655 0.146915C107.925 0.254116 108.171 0.416145 108.376 0.622959C108.582 0.829774 108.743 1.07693 108.849 1.34906C108.956 1.62118 109.005 1.91247 108.995 2.20477V4.39022C109.004 4.68018 108.953 4.96885 108.847 5.23842C108.741 5.50799 108.58 5.75275 108.376 5.95754C108.169 6.1605 107.923 6.31938 107.653 6.42473C107.383 6.53008 107.095 6.57974 106.805 6.5708H96.5145V31.1755C96.5202 31.4591 96.4668 31.7408 96.3578 32.0024C96.2487 32.2639 96.0864 32.4996 95.8813 32.6941C95.68 32.8952 95.4406 33.0536 95.1774 33.1597C94.9142 33.2659 94.6325 33.3178 94.349 33.3122H89.9987C89.7144 33.3182 89.4319 33.2665 89.1678 33.1603C88.9038 33.0541 88.6636 32.8956 88.4616 32.6941C88.2565 32.4996 88.0942 32.2639 87.9851 32.0024C87.8761 31.7408 87.8226 31.4591 87.8283 31.1755V6.58542H77.5374C77.2488 6.59425 76.9615 6.5445 76.6924 6.43914C76.4234 6.33377 76.1781 6.17495 75.9713 5.97212C75.7621 5.76743 75.5977 5.52097 75.4887 5.24855C75.3796 4.97613 75.3283 4.68378 75.3381 4.39022Z" fill="#1F1B1C"/>
<path id="Vector_4" d="M0.647776 46.7415V40.4917C0.646766 40.4269 0.658634 40.3624 0.682707 40.3023C0.70678 40.2421 0.74259 40.1874 0.787972 40.1413C0.831416 40.0969 0.883384 40.0619 0.940736 40.0385C0.998089 40.015 1.05959 40.0036 1.12147 40.005H2.09789C2.159 40.004 2.21969 40.0156 2.2762 40.039C2.33271 40.0625 2.38389 40.0973 2.4266 40.1413C2.47199 40.1874 2.50774 40.2421 2.53181 40.3023C2.55588 40.3624 2.56775 40.4269 2.56674 40.4917V45.7826H6.91707C6.97943 45.781 7.04143 45.7927 7.09893 45.817C7.15643 45.8414 7.20815 45.8777 7.25063 45.9237C7.337 46.014 7.38543 46.1343 7.38593 46.2596V46.7463C7.3842 46.87 7.33586 46.9883 7.25063 47.0773C7.20719 47.1217 7.15516 47.1567 7.09781 47.1801C7.04045 47.2036 6.97895 47.2149 6.91707 47.2136H1.13115C1.00736 47.2144 0.888011 47.1673 0.797649 47.0822C0.748523 47.0406 0.709446 46.9884 0.683474 46.9293C0.657502 46.8703 0.645295 46.806 0.647776 46.7415Z" fill="#84C551"/>
<path id="Vector_5" d="M8.52672 46.5711C8.02937 45.9802 7.75635 45.2308 7.75635 44.4562C7.75635 43.6816 8.02937 42.9322 8.52672 42.3414C9.14012 41.8646 9.89313 41.606 10.668 41.606C11.4429 41.606 12.196 41.8646 12.8094 42.3414C13.0756 42.6107 13.2818 42.934 13.4144 43.2899C13.5469 43.6457 13.6026 44.0259 13.5779 44.4051V44.6923C13.5793 44.7755 13.548 44.856 13.4909 44.9162C13.4618 44.9454 13.427 44.9682 13.3887 44.9833C13.3505 44.9983 13.3096 45.0053 13.2686 45.0038H9.51276C9.5159 45.3361 9.64166 45.6553 9.86561 45.8994C10.1412 46.1125 10.4863 46.2133 10.8323 46.1817C10.9958 46.2013 11.1615 46.1844 11.3177 46.1323C11.4739 46.0801 11.6168 45.9939 11.7362 45.8799C11.8078 45.7866 11.8992 45.7106 12.0038 45.6575C12.1083 45.6044 12.2234 45.5756 12.3405 45.5733H13.0849C13.1259 45.5718 13.1669 45.5788 13.2051 45.5938C13.2434 45.6089 13.2781 45.6317 13.3072 45.6609C13.3359 45.6904 13.3585 45.7254 13.3734 45.7639C13.3884 45.8024 13.3955 45.8435 13.3942 45.8848C13.3942 46.8583 12.4855 47.345 10.668 47.345C9.88112 47.3794 9.11227 47.1016 8.52672 46.5711ZM9.49346 43.9233H11.8136C11.7798 43.1347 11.3979 42.7405 10.6583 42.7405C9.91878 42.7405 9.55142 43.1347 9.50792 43.9233H9.49346Z" fill="#84C551"/>
<path id="Vector_6" d="M17.082 46.1133L17.7684 46.0501H17.9521C17.9931 46.0488 18.0339 46.056 18.0721 46.071C18.1103 46.0861 18.1452 46.1088 18.1744 46.1377C18.203 46.1663 18.2255 46.2004 18.2405 46.2381C18.2554 46.2758 18.2625 46.3162 18.2614 46.3567V46.897C18.261 46.9337 18.253 46.97 18.2381 47.0035C18.2231 47.037 18.2014 47.067 18.1744 47.0917C18.1146 47.1518 18.0362 47.1895 17.9521 47.1988C17.5132 47.2751 17.0681 47.3094 16.6228 47.301C15.1985 47.301 14.4847 46.5482 14.4815 45.0425V40.3114C14.4801 40.2282 14.5114 40.1477 14.5685 40.0875C14.5971 40.0594 14.6312 40.0375 14.6687 40.0233C14.7061 40.009 14.7461 40.0027 14.786 40.0048H15.9026C15.9426 40.0027 15.9825 40.009 16.0199 40.0233C16.0574 40.0375 16.0915 40.0594 16.1201 40.0875C16.1773 40.1477 16.2085 40.2282 16.2071 40.3114V41.9907H17.5944C17.6749 41.9887 17.7529 42.0184 17.8119 42.0734C17.8409 42.1027 17.8636 42.1378 17.8785 42.1763C17.8935 42.2148 17.9004 42.256 17.8989 42.2973V42.8912C17.9004 42.9325 17.8935 42.9737 17.8785 43.0122C17.8636 43.0507 17.8409 43.0857 17.8119 43.115C17.7833 43.1432 17.7492 43.1651 17.7117 43.1793C17.6743 43.1936 17.6344 43.1998 17.5944 43.1978H16.2071V45.0377C16.1879 45.3208 16.2722 45.6012 16.444 45.8262C16.5215 45.92 16.6193 45.9946 16.7299 46.0444C16.8405 46.0942 16.9609 46.1178 17.082 46.1133Z" fill="#84C551"/>
<path id="Vector_7" d="M20.181 40.0049C20.6063 40.0049 20.8238 40.1606 20.8238 40.4916C20.8196 40.5976 20.795 40.7018 20.7513 40.7983L20.1568 42.312C20.0909 42.4732 19.9842 42.6141 19.8474 42.7209C19.7107 42.8317 19.5395 42.8903 19.3641 42.8864H19.1659C18.9581 42.8864 18.8275 42.8426 18.7695 42.755C18.7175 42.6736 18.689 42.5792 18.6873 42.4824C18.6824 42.3916 18.6824 42.3006 18.6873 42.2098L18.9822 40.5938C19.0187 40.4271 19.1173 40.2807 19.2577 40.185C19.397 40.0789 19.5665 40.0209 19.7411 40.0195L20.181 40.0049Z" fill="#84C551"/>
<path id="Vector_8" d="M21.5342 43.2224C21.5342 42.1354 22.401 41.5934 24.1347 41.5967C25.9522 41.5967 26.8658 42.0834 26.8658 43.0569C26.8664 43.0974 26.859 43.1375 26.8439 43.175C26.8289 43.2125 26.8064 43.2466 26.778 43.2752C26.7496 43.3038 26.7158 43.3264 26.6785 43.3415C26.6413 43.3567 26.6014 43.3642 26.5612 43.3636H25.8168C25.6997 43.3643 25.5841 43.3374 25.4791 43.285C25.3742 43.2326 25.2829 43.1561 25.2126 43.0618C25.0834 42.943 24.9299 42.8543 24.7628 42.8021C24.5957 42.75 24.4191 42.7356 24.2459 42.76C23.6014 42.76 23.2791 42.9223 23.2791 43.2467C23.2791 43.3976 23.4097 43.5193 23.6659 43.6215C23.9793 43.7392 24.303 43.8272 24.6326 43.8844C25.0062 43.9612 25.3756 44.057 25.7395 44.1715C26.1016 44.2776 26.4331 44.4696 26.7063 44.7313C26.8334 44.8583 26.9333 45.0103 26.9998 45.1777C27.0663 45.3451 27.098 45.5245 27.0929 45.7048C27.0929 46.7853 26.1778 47.3256 24.3474 47.3256C22.5171 47.3256 21.6035 46.8389 21.6067 45.8654C21.6054 45.8241 21.6125 45.783 21.6275 45.7446C21.6426 45.7062 21.6653 45.6713 21.6943 45.6421C21.7233 45.6129 21.758 45.59 21.7961 45.5748C21.8342 45.5597 21.8751 45.5525 21.9161 45.5539H22.6605C22.7779 45.5541 22.8937 45.5819 22.9986 45.6351C23.1035 45.6884 23.1947 45.7656 23.2647 45.8605C23.3946 45.9782 23.5482 46.0662 23.7151 46.1183C23.882 46.1704 24.0582 46.1854 24.2314 46.1623C24.9903 46.1623 25.3722 46.0017 25.3722 45.6756C25.3722 45.5247 25.2416 45.3981 24.9855 45.3008C24.6709 45.1841 24.3477 45.093 24.0187 45.0282C23.6417 44.9503 23.2744 44.853 22.907 44.741C22.5539 44.634 22.2319 44.4419 21.9692 44.1813C21.834 44.0611 21.7254 43.9137 21.6504 43.7485C21.5755 43.5833 21.5358 43.404 21.5342 43.2224Z" fill="#84C551"/>
<path id="Vector_9" d="M31.912 46.0939C31.6728 45.8406 31.4876 45.5406 31.3679 45.2124C31.2482 44.8843 31.1964 44.5349 31.2159 44.1859C31.197 43.829 31.2586 43.4725 31.3958 43.1429C31.5331 42.8133 31.7426 42.5193 32.0087 42.2828C32.6589 41.7855 33.4658 41.5417 34.2805 41.5964C34.7858 41.6004 35.2895 41.6558 35.7837 41.7619C36.1922 41.8319 36.587 41.9666 36.9535 42.1611V46.8094C36.9775 47.1246 36.9234 47.4407 36.796 47.7296C36.6686 48.0185 36.4719 48.271 36.2236 48.4643C35.6099 48.8557 34.8896 49.043 34.1645 48.9998C33.4687 49.0327 32.7738 48.9183 32.1247 48.6639C31.9071 48.5775 31.7215 48.4253 31.5934 48.2283C31.4653 48.0313 31.401 47.7992 31.4093 47.5638C31.4078 47.5225 31.4147 47.4813 31.4297 47.4428C31.4447 47.4043 31.4673 47.3693 31.4963 47.34C31.5255 47.311 31.5604 47.2883 31.5986 47.2733C31.6368 47.2582 31.6776 47.2511 31.7186 47.2524H32.463C32.5725 47.2489 32.6812 47.2708 32.781 47.3164C32.8807 47.3619 32.9687 47.4299 33.0382 47.5152C33.1633 47.6421 33.3151 47.7391 33.4825 47.7989C33.6498 47.8587 33.8284 47.8799 34.005 47.8608C34.3443 47.8976 34.6859 47.815 34.9717 47.6271C35.0688 47.5164 35.1418 47.3865 35.1859 47.2457C35.23 47.1048 35.2444 46.9562 35.2279 46.8094V46.5758C34.742 46.7061 34.2419 46.7747 33.7391 46.7802C33.4044 46.795 33.0702 46.7418 32.7563 46.6239C32.4424 46.506 32.1553 46.3258 31.912 46.0939ZM34.179 42.8133C33.3911 42.8133 32.9948 43.266 32.9948 44.1859C32.9948 45.1058 33.3815 45.5634 34.15 45.5634C34.5141 45.558 34.8762 45.5073 35.2279 45.4125V42.9252C34.885 42.8398 34.5321 42.8022 34.179 42.8133Z" fill="#84C551"/>
<path id="Vector_10" d="M41.9613 42.9739L41.1927 42.9447C40.9365 42.963 40.6877 43.0395 40.465 43.1685C40.2424 43.2975 40.0515 43.4756 39.907 43.6894V46.897C39.9081 46.9376 39.901 46.9779 39.886 47.0156C39.871 47.0533 39.8486 47.0875 39.82 47.1161C39.7914 47.1442 39.7572 47.1661 39.7198 47.1804C39.6824 47.1946 39.6424 47.2008 39.6024 47.1988H38.4859C38.4458 47.2018 38.4056 47.196 38.368 47.1817C38.3304 47.1674 38.2964 47.145 38.2683 47.1161C38.2397 47.0875 38.2173 47.0533 38.2023 47.0156C38.1873 46.9779 38.1802 46.9376 38.1814 46.897V42.0296C38.1798 41.9883 38.1868 41.9471 38.2018 41.9086C38.2167 41.8701 38.2394 41.835 38.2683 41.8057C38.2967 41.7769 38.3307 41.7543 38.3681 41.7392C38.4055 41.7242 38.4456 41.717 38.4859 41.7181H39.6024C39.6427 41.7167 39.6829 41.7237 39.7204 41.7388C39.7578 41.7539 39.7918 41.7767 39.82 41.8057C39.849 41.835 39.8716 41.8701 39.8865 41.9086C39.9015 41.9471 39.9085 41.9883 39.907 42.0296V42.346C40.2031 42.1195 40.5283 41.9346 40.8737 41.796C41.271 41.6642 41.6882 41.6033 42.1063 41.6159C42.1887 41.616 42.2681 41.6473 42.3286 41.7035C42.3568 41.7324 42.379 41.7667 42.3939 41.8043C42.4088 41.8419 42.4163 41.882 42.4157 41.9225V42.6867C42.4177 42.7274 42.411 42.768 42.396 42.8058C42.381 42.8436 42.358 42.8777 42.3286 42.9058C42.2994 42.9347 42.2646 42.9574 42.2264 42.9724C42.1882 42.9875 42.1473 42.9946 42.1063 42.9934L41.9613 42.9739Z" fill="#84C551"/>
<path id="Vector_11" d="M43.6096 46.5808C43.1074 45.9865 42.8315 45.2316 42.8315 44.4513C42.8315 43.6709 43.1074 42.916 43.6096 42.3218C44.2609 41.85 45.0429 41.5962 45.8452 41.5962C46.6475 41.5962 47.4295 41.85 48.0808 42.3218C48.5831 42.916 48.8589 43.6709 48.8589 44.4513C48.8589 45.2316 48.5831 45.9865 48.0808 46.5808C47.4273 47.047 46.6462 47.2975 45.8452 47.2975C45.0443 47.2975 44.2632 47.047 43.6096 46.5808ZM44.8712 43.1444C44.6679 43.5478 44.5619 43.9939 44.5619 44.4464C44.5619 44.8989 44.6679 45.345 44.8712 45.7484C45.1277 46.0064 45.4754 46.1513 45.838 46.1513C46.2005 46.1513 46.5482 46.0064 46.8047 45.7484C47.0081 45.345 47.1141 44.8989 47.1141 44.4464C47.1141 43.9939 47.0081 43.5478 46.8047 43.1444C46.5458 42.891 46.199 42.7493 45.838 42.7493C45.477 42.7493 45.1302 42.891 44.8712 43.1444Z" fill="#84C551"/>
<path id="Vector_12" d="M49.2602 42.1418C49.2358 42.0709 49.2196 41.9974 49.2119 41.9227C49.2119 41.7767 49.2989 41.7037 49.4633 41.6988H50.3914C50.5397 41.6972 50.6854 41.7376 50.8119 41.8157C50.9301 41.8924 51.0187 42.0075 51.0633 42.1418L51.8801 44.848L52.6874 42.1418C52.7148 42.0118 52.7872 41.8959 52.8917 41.8147C52.9962 41.7336 53.1259 41.6925 53.2577 41.6988H54.1375C54.2697 41.6904 54.4005 41.7307 54.5054 41.8122C54.6104 41.8937 54.6823 42.0108 54.7078 42.1418L55.5151 44.848L56.332 42.1418C56.3767 42.0061 56.4674 41.8907 56.5882 41.8157C56.7141 41.7364 56.8602 41.6958 57.0087 41.6988H57.9319C58.0963 41.6988 58.1785 41.7767 58.1833 41.9227C58.181 41.9977 58.1663 42.0717 58.1398 42.1418L56.6269 46.7609C56.584 46.8935 56.4969 47.0069 56.3803 47.0821C56.2654 47.1579 56.131 47.1985 55.9936 47.199H55.2928C55.1531 47.1986 55.0168 47.1562 54.9012 47.0773C54.7857 47.0043 54.6999 46.8921 54.6595 46.7609L53.6928 43.7675L52.726 46.7609C52.6836 46.8925 52.5963 47.0045 52.4795 47.0773C52.366 47.1567 52.2311 47.1991 52.0928 47.199H51.4016C51.2657 47.1987 51.1328 47.158 51.0197 47.0821C50.9019 47.0072 50.8132 46.8938 50.7684 46.7609L49.2602 42.1418Z" fill="#84C551"/>
<path id="Vector_13" d="M65.0713 46.1133L65.7576 46.0501H65.9413C65.9823 46.0488 66.0232 46.056 66.0614 46.071C66.0996 46.0861 66.1344 46.1088 66.1637 46.1377C66.1923 46.1663 66.2148 46.2004 66.2297 46.2381C66.2447 46.2758 66.2518 46.3162 66.2507 46.3567V46.897C66.2502 46.9337 66.2423 46.97 66.2273 47.0035C66.2123 47.037 66.1907 47.067 66.1637 47.0917C66.1038 47.1518 66.0254 47.1895 65.9413 47.1988C65.5024 47.2751 65.0574 47.3094 64.612 47.301C63.1877 47.301 62.474 46.5482 62.4707 45.0425V40.3114C62.4694 40.2282 62.5006 40.1477 62.5577 40.0875C62.5863 40.0594 62.6205 40.0375 62.6579 40.0233C62.6953 40.009 62.7353 40.0027 62.7753 40.0048H63.8918C63.9318 40.0027 63.9718 40.009 64.0092 40.0233C64.0466 40.0375 64.0808 40.0594 64.1094 40.0875C64.1665 40.1477 64.1977 40.2282 64.1964 40.3114V41.9907H65.5885C65.6672 41.99 65.7433 42.0196 65.8012 42.0734C65.8308 42.1025 65.8542 42.1374 65.87 42.1759C65.8858 42.2143 65.8936 42.2557 65.893 42.2973V42.8912C65.8936 42.9328 65.8858 42.9741 65.87 43.0126C65.8542 43.0511 65.8308 43.086 65.8012 43.115C65.7731 43.1426 65.7398 43.1641 65.7032 43.1784C65.6667 43.1926 65.6276 43.1992 65.5885 43.1978H64.1964V45.0377C64.1771 45.3208 64.2614 45.6012 64.4332 45.8262C64.5107 45.92 64.6085 45.9946 64.7191 46.0444C64.8297 46.0942 64.9502 46.1178 65.0713 46.1133Z" fill="#84C551"/>
<path id="Vector_14" d="M67.4881 46.5808C66.9858 45.9865 66.71 45.2316 66.71 44.4513C66.71 43.6709 66.9858 42.916 67.4881 42.3218C68.1394 41.85 68.9214 41.5962 69.7237 41.5962C70.526 41.5962 71.308 41.85 71.9593 42.3218C72.4616 42.916 72.7374 43.6709 72.7374 44.4513C72.7374 45.2316 72.4616 45.9865 71.9593 46.5808C71.3058 47.047 70.5246 47.2975 69.7237 47.2975C68.9228 47.2975 68.1416 47.047 67.4881 46.5808ZM68.7497 43.1444C68.5463 43.5478 68.4403 43.9939 68.4403 44.4464C68.4403 44.8989 68.5463 45.345 68.7497 45.7484C68.8653 45.8913 69.0138 46.0036 69.1822 46.0757C69.3507 46.1478 69.5341 46.1775 69.7165 46.1622C69.8987 46.1763 70.0817 46.146 70.2499 46.074C70.4182 46.002 70.5668 45.8904 70.6832 45.7484C70.8896 45.3459 70.9973 44.8994 70.9973 44.4464C70.9973 43.9934 70.8896 43.5469 70.6832 43.1444C70.5653 43.0048 70.4161 42.8955 70.2481 42.8252C70.08 42.755 69.8978 42.726 69.7165 42.7404C69.5349 42.7243 69.3522 42.7527 69.1839 42.823C69.0155 42.8934 68.8666 43.0036 68.7497 43.1444Z" fill="#84C551"/>
<path id="Vector_15" d="M74.0379 46.0942C73.7987 45.8409 73.6135 45.5409 73.4938 45.2127C73.3741 44.8846 73.3224 44.5352 73.3419 44.1862C73.323 43.8293 73.3845 43.4728 73.5217 43.1432C73.659 42.8136 73.8686 42.5196 74.1346 42.2831C74.7862 41.7846 75.595 41.5408 76.4113 41.5967C76.915 41.6009 77.4171 41.6564 77.9097 41.7622C78.3194 41.8332 78.7157 41.9679 79.0843 42.1614V46.8097C79.1078 47.1253 79.0529 47.4417 78.9246 47.7306C78.7964 48.0195 78.5988 48.2718 78.3496 48.4646C77.7374 48.8553 77.0188 49.0426 76.2953 49C75.5994 49.0339 74.9044 48.9194 74.2555 48.6642C74.0375 48.5784 73.8515 48.4264 73.7233 48.2292C73.5951 48.0321 73.5311 47.7996 73.5401 47.5641C73.5388 47.5228 73.5458 47.4817 73.5609 47.4433C73.5759 47.4049 73.5987 47.37 73.6277 47.3408C73.6567 47.3116 73.6913 47.2888 73.7294 47.2736C73.7676 47.2584 73.8084 47.2513 73.8494 47.2527H74.6035C74.7131 47.2485 74.8221 47.27 74.9219 47.3156C75.0218 47.3613 75.1097 47.4297 75.1787 47.5155C75.3042 47.6418 75.4561 47.7384 75.6233 47.7982C75.7906 47.8579 75.9689 47.8794 76.1454 47.8611C76.4849 47.9004 76.8273 47.8176 77.1121 47.6274C77.2101 47.5171 77.284 47.3873 77.3289 47.2465C77.3739 47.1056 77.389 46.9568 77.3732 46.8097V46.5761C76.8857 46.7064 76.384 46.7751 75.8796 46.7805C75.5425 46.7972 75.2055 46.7451 74.889 46.6271C74.5725 46.5092 74.283 46.3279 74.0379 46.0942ZM76.305 42.8136C75.5171 42.8136 75.1255 43.2663 75.1255 44.1862C75.1255 45.1061 75.5074 45.5637 76.2759 45.5637C76.6416 45.5583 77.0053 45.5076 77.3587 45.4128V42.9255C77.0141 42.8402 76.6596 42.8026 76.305 42.8136Z" fill="#84C551"/>
<path id="Vector_16" d="M80.7664 46.5711C80.2691 45.9802 79.9961 45.2308 79.9961 44.4562C79.9961 43.6816 80.2691 42.9322 80.7664 42.3414C81.3798 41.8646 82.1329 41.606 82.9078 41.606C83.6826 41.606 84.4357 41.8646 85.0491 42.3414C85.3153 42.6107 85.5215 42.934 85.654 43.2899C85.7866 43.6457 85.8423 44.0259 85.8176 44.4051V44.6923C85.819 44.7755 85.7878 44.856 85.7306 44.9162C85.7015 44.9454 85.6667 44.9682 85.6285 44.9833C85.5902 44.9983 85.5493 45.0053 85.5083 45.0038H81.7525C81.7556 45.3361 81.8814 45.6553 82.1054 45.8994C82.3809 46.1125 82.7261 46.2133 83.0721 46.1817C83.2355 46.2013 83.4012 46.1844 83.5574 46.1323C83.7136 46.0801 83.8565 45.9939 83.976 45.8799C84.0475 45.7866 84.139 45.7106 84.2435 45.6575C84.3481 45.6044 84.4631 45.5756 84.5802 45.5733H85.3246C85.3656 45.5719 85.4064 45.5791 85.4446 45.5942C85.4827 45.6094 85.5174 45.6323 85.5464 45.6615C85.5754 45.6907 85.5981 45.7256 85.6131 45.764C85.6282 45.8024 85.6353 45.8435 85.6339 45.8848C85.6339 46.8583 84.7252 47.345 82.9078 47.345C82.1209 47.3794 81.352 47.1016 80.7664 46.5711ZM81.7331 43.9233H84.0533C84.0195 43.1347 83.6328 42.7405 82.8981 42.7405C82.1634 42.7405 81.7912 43.1347 81.7477 43.9233H81.7331Z" fill="#84C551"/>
<path id="Vector_17" d="M89.3413 46.1133L90.0229 46.0501H90.2114C90.2941 46.0487 90.3739 46.0802 90.4337 46.1377C90.4623 46.1663 90.4848 46.2004 90.4997 46.2381C90.5147 46.2758 90.5219 46.3162 90.5208 46.3567V46.897C90.5203 46.9337 90.5123 46.97 90.4973 47.0035C90.4824 47.037 90.4607 47.067 90.4337 47.0917C90.3732 47.1509 90.2951 47.1884 90.2114 47.1988C89.7725 47.2749 89.3274 47.3092 88.8821 47.301C87.4546 47.301 86.7408 46.5482 86.7408 45.0425V40.3114C86.7394 40.2282 86.7707 40.1477 86.8278 40.0875C86.8564 40.0594 86.8905 40.0375 86.9279 40.0233C86.9654 40.009 87.0053 40.0027 87.0453 40.0048H88.1619C88.2019 40.0027 88.2418 40.009 88.2792 40.0233C88.3166 40.0375 88.3508 40.0594 88.3794 40.0875C88.4365 40.1477 88.4678 40.2282 88.4664 40.3114V41.9907H89.8537C89.9341 41.9887 90.0121 42.0184 90.0712 42.0734C90.1002 42.1027 90.1228 42.1378 90.1378 42.1763C90.1528 42.2148 90.1597 42.256 90.1582 42.2973V42.8912C90.1597 42.9325 90.1528 42.9737 90.1378 43.0122C90.1228 43.0507 90.1002 43.0857 90.0712 43.115C90.0426 43.1432 90.0084 43.1651 89.971 43.1793C89.9336 43.1936 89.8937 43.1998 89.8537 43.1978H88.4664V45.0377C88.4472 45.3208 88.5315 45.6012 88.7033 45.8262C88.7808 45.92 88.8785 45.9946 88.9892 46.0444C89.0998 46.0942 89.2202 46.1178 89.3413 46.1133Z" fill="#84C551"/>
<path id="Vector_18" d="M91.3377 46.897V40.3114C91.3364 40.2282 91.3676 40.1477 91.4248 40.0875C91.4534 40.0594 91.4875 40.0375 91.5249 40.0233C91.5623 40.009 91.6023 40.0027 91.6423 40.0048H92.7589C92.7989 40.0027 92.8388 40.009 92.8762 40.0233C92.9136 40.0375 92.9478 40.0594 92.9764 40.0875C93.0335 40.1477 93.0647 40.2282 93.0634 40.3114V42.3265C93.5637 41.8672 94.2135 41.6075 94.8905 41.5964C95.1796 41.5852 95.4679 41.6324 95.7386 41.7352C96.0092 41.838 96.2567 41.9944 96.4663 42.1951C96.6852 42.441 96.852 42.7293 96.9568 43.0423C97.0615 43.3552 97.1018 43.6864 97.0754 44.0155V46.897C97.0764 46.9368 97.0692 46.9764 97.0542 47.0133C97.0393 47.0502 97.0168 47.0835 96.9884 47.1112C96.9593 47.1403 96.9245 47.1632 96.8862 47.1783C96.848 47.1933 96.807 47.2003 96.766 47.1988H95.6543C95.614 47.1999 95.5739 47.1927 95.5365 47.1777C95.4991 47.1626 95.4651 47.14 95.4367 47.1112C95.4083 47.0835 95.3859 47.0502 95.3709 47.0133C95.3559 46.9764 95.3487 46.9368 95.3497 46.897V44.0155C95.3497 43.2124 95.0307 42.8133 94.383 42.8133C94.1245 42.8392 93.8736 42.9162 93.6447 43.0398C93.4158 43.1634 93.2134 43.3312 93.0489 43.5336V46.897C93.0499 46.9368 93.0428 46.9764 93.0278 47.0133C93.0128 47.0502 92.9903 47.0835 92.9619 47.1112C92.9335 47.14 92.8996 47.1626 92.8621 47.1777C92.8247 47.1927 92.7847 47.1999 92.7444 47.1988H91.6278C91.5875 47.1999 91.5474 47.1927 91.51 47.1777C91.4726 47.1626 91.4387 47.14 91.4103 47.1112C91.3844 47.0823 91.3646 47.0484 91.3521 47.0116C91.3397 46.9748 91.3348 46.9358 91.3377 46.897Z" fill="#84C551"/>
<path id="Vector_19" d="M98.7718 46.5708C98.2753 45.9795 98.0029 45.2302 98.0029 44.4559C98.0029 43.6816 98.2753 42.9324 98.7718 42.3411C99.3594 41.817 100.13 41.5492 100.913 41.5963C101.692 41.5488 102.458 41.809 103.05 42.3216C103.316 42.5909 103.522 42.9143 103.655 43.2701C103.787 43.626 103.843 44.0061 103.818 44.3853V44.6725C103.82 44.7558 103.788 44.8363 103.731 44.8964C103.702 44.9256 103.667 44.9484 103.629 44.9635C103.591 44.9786 103.55 44.9856 103.509 44.9841H99.7385C99.7399 45.3158 99.8639 45.6351 100.087 45.8796C100.363 46.0919 100.707 46.1926 101.053 46.162C101.217 46.1809 101.384 46.1638 101.541 46.1117C101.697 46.0596 101.841 45.9737 101.962 45.8602C102.033 45.766 102.124 45.6895 102.229 45.6363C102.334 45.5831 102.449 45.5548 102.566 45.5535H103.306C103.347 45.552 103.388 45.559 103.426 45.5741C103.464 45.5892 103.499 45.612 103.528 45.6411C103.557 45.6706 103.579 45.7057 103.594 45.7441C103.609 45.7826 103.616 45.8238 103.615 45.8651C103.615 46.8385 102.706 47.3252 100.889 47.3252C100.113 47.3586 99.3542 47.0882 98.7718 46.5708ZM99.7385 43.923H102.054C102.02 43.1345 101.638 42.7402 100.899 42.7402C100.159 42.7402 99.782 43.1345 99.7385 43.923Z" fill="#84C551"/>
<path id="Vector_20" d="M108.512 42.9738L107.743 42.9446C107.487 42.9633 107.238 43.04 107.016 43.1689C106.793 43.2979 106.602 43.4757 106.457 43.6893V46.8969C106.459 46.9375 106.451 46.9778 106.436 47.0155C106.422 47.0532 106.399 47.0874 106.37 47.116C106.342 47.1441 106.308 47.166 106.27 47.1803C106.233 47.1945 106.193 47.2007 106.153 47.1987H105.056C105.016 47.2017 104.975 47.1959 104.938 47.1816C104.9 47.1673 104.866 47.1449 104.838 47.116C104.81 47.0874 104.787 47.0532 104.772 47.0155C104.757 46.9778 104.75 46.9375 104.751 46.8969V42.0295C104.75 41.9882 104.757 41.947 104.772 41.9085C104.787 41.87 104.809 41.8349 104.838 41.8056C104.867 41.7768 104.901 41.7542 104.938 41.7391C104.975 41.7241 105.015 41.7169 105.056 41.718H106.172C106.213 41.716 106.253 41.7227 106.291 41.7379C106.328 41.753 106.362 41.7761 106.39 41.8056C106.419 41.8349 106.441 41.87 106.456 41.9085C106.471 41.947 106.478 41.9882 106.477 42.0295V42.3459C106.773 42.1195 107.098 41.9345 107.444 41.7959C107.841 41.6645 108.258 41.6036 108.676 41.6158C108.759 41.6159 108.838 41.6472 108.898 41.7034C108.927 41.7323 108.949 41.7666 108.964 41.8042C108.979 41.8418 108.986 41.882 108.986 41.9224V42.6866C108.988 42.7273 108.981 42.7679 108.966 42.8057C108.951 42.8435 108.928 42.8776 108.898 42.9057C108.869 42.9346 108.834 42.9573 108.796 42.9723C108.758 42.9874 108.717 42.9945 108.676 42.9933L108.512 42.9738Z" fill="#84C551"/>
<path id="Vector_21" d="M37.7658 25.2715V25.3007L36.2287 31.1756C36.1785 31.4043 36.151 31.6375 36.1465 31.8716C36.1702 32.2107 36.3045 32.5324 36.5284 32.7867C36.6857 32.9723 36.8852 33.117 37.1099 33.2085C37.3345 33.3 37.5777 33.3356 37.819 33.3124H42.3675C42.9889 33.3042 43.5896 33.0866 44.0738 32.6942C44.594 32.3135 44.9611 31.7573 45.1082 31.1269L46.6453 25.286V25.2617L37.7658 25.2715Z" fill="#21603F"/>
<path id="Vector_22" d="M70.0984 0.0243451C69.9874 0.0146714 69.8758 0.0146714 69.7648 0.0243451H61.2478H56.1048C51.271 0.199571 47.6378 1.39695 45.2048 3.61648C45.0888 3.71869 44.9776 3.82089 44.8712 3.93284C43.4724 5.34604 42.4859 7.119 42.0193 9.05822L37.7754 25.2666H51.7931C56.6043 25.0914 60.2263 23.9037 62.6593 21.7037C62.7753 21.6015 62.8864 21.4944 62.9976 21.3873C64.4185 19.9717 65.4223 18.1876 65.8978 16.2327L70.1418 0.0243451H70.0984ZM57.5017 14.057C57.2174 15.1662 56.6374 16.1761 55.8244 16.9774C55.7132 17.0845 55.5972 17.1916 55.4764 17.2938L55.2734 17.4545C54.3273 18.1795 53.1917 18.6109 52.0058 18.6956H48.3563L50.3817 11.2388C50.6598 10.1336 51.2293 9.12453 52.03 8.31836C52.1411 8.21128 52.2571 8.10419 52.378 8.00197L52.61 7.81217C53.5561 7.08712 54.6917 6.65574 55.8776 6.57096H59.5318L57.5017 14.057Z" fill="#84C551"/>
<path id="Vector_23" d="M68.0535 16.3201C67.3481 19.3266 65.5603 21.9627 63.0361 23.7186V25.2518V31.0926C63.0253 31.3821 63.0739 31.6708 63.1789 31.9406C63.2838 32.2103 63.4429 32.4554 63.6461 32.6605C63.8493 32.8655 64.0923 33.0263 64.3599 33.1325C64.6276 33.2388 64.9142 33.2884 65.2017 33.2781H69.552C69.8376 33.2826 70.1212 33.2303 70.3866 33.1242C70.652 33.0182 70.894 32.8604 71.0988 32.66C71.3061 32.4667 71.4705 32.2315 71.5813 31.9698C71.6921 31.7081 71.7467 31.4258 71.7416 31.1413V2.23877L68.0535 16.3201Z" fill="#1F1B1C"/>
</g>
</g>
</g>
</g>
</g>
</g>
<defs>
<clipPath id="clip0_0_1">
<rect width="1920" height="4889" fill="white" transform="translate(-405 -4487)"/>
</clipPath>
<clipPath id="clip1_0_1">
<rect width="109" height="49" fill="white"/>
</clipPath>
</defs>
</svg>
